# This file uses centimeters as units for non-parametric coordinates.

mtllib A3.mtl
g default
v 1.092290 6.562716 -0.966946
v -0.301630 6.562716 -0.966946
v -2.844531 0.034007 -0.966946
v -1.446158 0.034007 -0.966946
v -0.907295 1.516995 -0.966946
v 1.702408 1.516995 -0.966946
v 2.272445 0.034007 -0.966946
v 3.706445 0.034007 -0.966946
v -0.502034 2.616989 -0.966946
v 0.379743 5.039647 -0.966946
v 1.279333 2.616989 -0.966946
v -1.573081 3.298361 -0.966946
v 2.399368 3.298361 -0.966946
v -0.254034 3.298361 -0.966946
v 1.026323 3.298361 -0.966946
v 0.430957 1.516995 -0.966946
v 0.430957 2.616989 -0.966946
v 0.430957 6.562716 -0.966946
v 0.430957 4.901724 -0.966946
v 1.092290 6.562716 0.968940
v 0.430957 6.562716 0.968940
v 0.430957 4.901724 0.968940
v 1.026323 3.298361 0.968940
v 2.399368 3.298361 0.968940
v 0.430957 1.516995 0.968940
v 1.702408 1.516995 0.968940
v 2.272445 0.034007 0.968940
v 3.706445 0.034007 0.968940
v 1.279333 2.616989 0.968940
v 0.430957 2.616989 0.968940
v -1.573081 3.298361 0.968940
v -2.844531 0.034007 0.968940
v -1.446158 0.034007 0.968940
v -0.907295 1.516995 0.968940
v -0.502034 2.616989 0.968940
v -0.254034 3.298361 0.968940
v -0.301630 6.562716 0.968940
v 0.379743 5.039647 0.968940
vt 0.600952 1.000000
vt 0.388171 1.000000
vt 0.000000 0.000000
vt 0.213460 0.000000
vt 0.295717 0.227149
vt 0.694086 0.227149
vt 0.781101 0.000000
vt 1.000000 0.000000
vt 0.357580 0.395634
vt 0.492182 0.766712
vt 0.629504 0.395634
vt 0.194086 0.500000
vt 0.800476 0.500000
vt 0.395437 0.500000
vt 0.590882 0.500000
vt 0.500000 0.227149
vt 0.500000 0.395634
vt 0.500000 1.000000
vt 0.500000 0.745586
vt 0.600952 1.000000
vt 0.500000 1.000000
vt 0.500000 0.745586
vt 0.590882 0.500000
vt 0.800476 0.500000
vt 0.500000 0.227149
vt 0.694086 0.227149
vt 0.781101 0.000000
vt 1.000000 0.000000
vt 0.629504 0.395634
vt 0.500000 0.395634
vt 0.194086 0.500000
vt 0.000000 0.000000
vt 0.213460 0.000000
vt 0.295717 0.227149
vt 0.357580 0.395634
vt 0.395437 0.500000
vt 0.388171 1.000000
vt 0.492182 0.766712
vt 0.600952 1.000000
vt 0.500000 1.000000
vt 0.500000 0.745586
vt 0.590882 0.500000
vt 0.800476 0.500000
vt 0.500000 0.227149
vt 0.694086 0.227149
vt 0.781101 0.000000
vt 1.000000 0.000000
vt 0.629504 0.395634
vt 0.500000 0.395634
vt 0.194086 0.500000
vt 0.000000 0.000000
vt 0.213460 0.000000
vt 0.295717 0.227149
vt 0.357580 0.395634
vt 0.395437 0.500000
vt 0.388171 1.000000
vt 0.492182 0.766712
vn 0.000000 0.000000 1.000000
vn 0.000000 0.000000 1.000000
vn 0.000000 0.000000 1.000000
vn 0.000000 0.000000 1.000000
vn 0.000000 0.000000 1.000000
vn 0.000000 0.000000 1.000000
vn 0.000000 0.000000 1.000000
vn 0.000000 0.000000 1.000000
vn 0.000000 0.000000 1.000000
vn 0.000000 0.000000 1.000000
vn 0.000000 0.000000 1.000000
vn -0.000000 0.000000 1.000000
vn 0.000000 0.000000 1.000000
vn 0.000000 0.000000 1.000000
vn 0.000000 0.000000 1.000000
vn 0.000000 0.000000 1.000000
vn -0.000000 0.000000 1.000000
vn -0.000000 0.000000 1.000000
vn -0.000000 0.000000 1.000000
vn 0.000000 0.000000 -1.000000
vn 0.000000 0.000000 -1.000000
vn 0.000000 0.000000 -1.000000
vn 0.000000 0.000000 -1.000000
vn 0.000000 0.000000 -1.000000
vn 0.000000 0.000000 -1.000000
vn 0.000000 0.000000 -1.000000
vn 0.000000 0.000000 -1.000000
vn 0.000000 0.000000 -1.000000
vn 0.000000 0.000000 -1.000000
vn 0.000000 0.000000 -1.000000
vn 0.000000 0.000000 -1.000000
vn 0.000000 0.000000 -1.000000
vn 0.000000 0.000000 -1.000000
vn 0.000000 0.000000 -1.000000
vn 0.000000 0.000000 -1.000000
vn 0.000000 0.000000 -1.000000
vn 0.000000 0.000000 -1.000000
vn 0.000000 0.000000 -1.000000
vn 0.000000 1.000000 0.000000
vn 0.000000 1.000000 0.000000
vn 0.000000 1.000000 0.000000
vn 0.000000 1.000000 0.000000
vn -0.937457 -0.348100 0.000000
vn -0.937458 -0.348100 0.000000
vn -0.937458 -0.348100 0.000000
vn -0.937457 -0.348100 0.000000
vn 0.928346 0.371718 0.000000
vn 0.928346 0.371718 0.000000
vn 0.928346 0.371718 0.000000
vn 0.928346 0.371718 0.000000
vn 0.000000 -1.000000 0.000000
vn 0.000000 -1.000000 0.000000
vn 0.000000 -1.000000 0.000000
vn 0.000000 -1.000000 0.000000
vn -0.933418 -0.358791 0.000000
vn -0.933418 -0.358791 0.000000
vn -0.933418 -0.358791 0.000000
vn -0.933418 -0.358791 0.000000
vn 0.000000 -1.000000 0.000000
vn 0.000000 -1.000000 0.000000
vn 0.000000 -1.000000 0.000000
vn 0.000000 -1.000000 0.000000
vn 0.928346 0.371718 0.000000
vn 0.928346 0.371718 0.000000
vn -0.937458 -0.348100 0.000000
vn -0.937458 -0.348100 0.000000
vn 0.000000 1.000000 0.000000
vn 0.000000 1.000000 0.000000
vn 0.000000 1.000000 0.000000
vn 0.000000 1.000000 0.000000
vn -0.931814 0.362937 0.000000
vn -0.931814 0.362937 0.000000
vn -0.931814 0.362937 0.000000
vn -0.931814 0.362937 0.000000
vn 0.000000 -1.000000 0.000000
vn 0.000000 -1.000000 0.000000
vn 0.000000 -1.000000 0.000000
vn 0.000000 -1.000000 0.000000
vn 0.939876 -0.341517 0.000000
vn 0.939876 -0.341517 0.000000
vn 0.939876 -0.341517 0.000000
vn 0.939876 -0.341517 0.000000
vn 0.000000 -1.000000 0.000000
vn 0.000000 -1.000000 0.000000
vn 0.000000 1.000000 0.000000
vn 0.000000 1.000000 0.000000
vn 0.939692 -0.342020 0.000000
vn 0.939693 -0.342020 0.000000
vn 0.939693 -0.342020 0.000000
vn 0.939692 -0.342020 0.000000
vn 0.000000 1.000000 0.000000
vn 0.000000 1.000000 0.000000
vn -0.931814 0.362937 0.000000
vn -0.931814 0.362937 0.000000
vn 0.939693 -0.342020 0.000000
vn 0.939693 -0.342020 0.000000
vn -0.937457 -0.348100 0.000000
vn -0.937457 -0.348100 0.000000
s 1
g Trim_Char_A_1_1 Trim_Text_A_1_1
usemtl initialShadingGroup
f 20/39/1 21/40/2 22/41/3 23/42/4 24/43/5
f 25/44/6 26/45/7 27/46/8 28/47/9 24/43/5 23/42/4 29/48/10 30/49/11
f 31/50/12 32/51/13 33/52/14 34/53/15 25/44/6 30/49/11 35/54/16 36/55/17
f 21/40/2 37/56/18 31/50/12 36/55/17 38/57/19 22/41/3
s 2
f 1/20/20 13/24/21 15/23/22 19/22/23 18/21/24
f 16/25/25 17/30/26 11/29/27 15/23/22 13/24/21 8/28/28 7/27/29 6/26/30
f 12/31/31 14/36/32 9/35/33 17/30/26 16/25/25 5/34/34 4/33/35 3/32/36
f 18/21/24 19/22/23 10/38/37 14/36/32 12/31/31 2/37/38
s 3
f 1/1/39 18/18/40 21/40/41 20/39/42
s 4
f 19/19/43 15/15/44 23/42/45 22/41/46
s 5
f 13/13/47 1/1/48 20/39/49 24/43/50
s 6
f 16/16/51 6/6/52 26/45/53 25/44/54
s off
f 6/6/55 7/7/56 27/46/57 26/45/58
f 7/7/59 8/8/60 28/47/61 27/46/62
s 5
f 8/8/63 13/13/47 24/43/50 28/47/64
s 4
f 15/15/44 11/11/65 29/48/66 23/42/45
s 7
f 11/11/67 17/17/68 30/49/69 29/48/70
s 8
f 12/12/71 3/3/72 32/51/73 31/50/74
s off
f 3/3/75 4/4/76 33/52/77 32/51/78
f 4/4/79 5/5/80 34/53/81 33/52/82
s 6
f 5/5/83 16/16/51 25/44/54 34/53/84
s 7
f 17/17/68 9/9/85 35/54/86 30/49/69
s 9
f 9/9/87 14/14/88 36/55/89 35/54/90
s 3
f 18/18/40 2/2/91 37/56/92 21/40/41
s 8
f 2/2/93 12/12/71 31/50/74 37/56/94
s 9
f 14/14/88 10/10/95 38/57/96 36/55/89
s 4
f 10/10/97 19/19/43 22/41/46 38/57/98
