# This file uses centimeters as units for non-parametric coordinates.

mtllib Ground_24.mtl
g default
v -81.238873 -4.000000 113.310589
v -26.495136 -1.561600 116.275006
v -13.108400 -1.000000 116.275006
v -13.108400 -1.000000 120.028698
v -10.303556 -0.850000 116.772152
v -8.878731 -0.650000 112.892010
v -8.802361 -0.500000 107.734311
v -9.253761 -0.500000 105.658246
v -10.266827 -0.500000 104.198781
v -24.773939 -0.200000 90.292340
v -28.764431 -0.200000 90.292340
v -54.278927 -1.000000 63.958886
v -58.191822 -1.000000 63.788678
v -59.299110 -1.500000 71.744374
v -63.506710 -3.000000 78.442891
v -82.957218 -5.000000 80.693692
v -83.035572 -5.000000 83.116734
v -84.169445 -4.000000 117.465176
v -81.238873 -4.000000 118.317883
v -81.238873 0.000000 113.310589
v -26.495136 2.438400 116.275006
v -13.108400 3.000000 116.275006
v -13.108400 3.000000 120.028698
v -10.303556 3.150000 116.772152
v -8.878731 3.350000 112.892010
v -8.802361 3.500000 107.734311
v -9.253761 3.500000 105.658246
v -10.266827 3.500000 104.198781
v -24.773939 3.800000 90.292340
v -28.764431 3.800000 90.292340
v -54.278927 3.000000 63.958886
v -58.191822 3.000000 63.788678
v -59.299110 2.500000 71.744374
v -63.506710 1.000000 78.442891
v -82.957218 -1.000000 80.693692
v -83.035572 -1.000000 83.116734
v -84.169445 0.000000 117.465176
v -81.238873 0.000000 118.317883
vn -0.054072 -0.000000 0.998537
vn -0.054072 -0.000000 0.998537
vn -0.054072 -0.000000 0.998537
vn -0.054072 -0.000000 0.998537
vn -0.054072 -0.000000 0.998537
vn -0.054072 -0.000000 0.998537
vn 0.000000 -0.000000 1.000000
vn 0.000000 -0.000000 1.000000
vn 0.000000 -0.000000 1.000000
vn 0.000000 -0.000000 1.000000
vn 0.000000 -0.000000 1.000000
vn 0.000000 -0.000000 1.000000
vn -1.000000 0.000000 0.000000
vn -1.000000 0.000000 0.000000
vn -1.000000 0.000000 0.000000
vn -1.000000 0.000000 0.000000
vn -1.000000 0.000000 0.000000
vn -1.000000 0.000000 0.000000
vn 0.757700 -0.000000 0.652603
vn 0.757700 -0.000000 0.652603
vn 0.757700 -0.000000 0.652603
vn 0.757700 -0.000000 0.652603
vn 0.757700 -0.000000 0.652603
vn 0.757700 -0.000000 0.652603
vn 0.938712 -0.000000 0.344704
vn 0.938712 -0.000000 0.344704
vn 0.938712 -0.000000 0.344704
vn 0.938712 -0.000000 0.344704
vn 0.938712 -0.000000 0.344704
vn 0.938712 -0.000000 0.344704
vn 0.999890 -0.000000 0.014805
vn 0.999890 -0.000000 0.014805
vn 0.999890 -0.000000 0.014805
vn 0.999890 -0.000000 0.014805
vn 0.999890 -0.000000 0.014805
vn 0.999890 -0.000000 0.014805
vn 0.977168 0.000000 -0.212467
vn 0.977168 0.000000 -0.212467
vn 0.977168 0.000000 -0.212467
vn 0.977168 0.000000 -0.212467
vn 0.977168 0.000000 -0.212467
vn 0.977168 0.000000 -0.212467
vn 0.821489 0.000000 -0.570224
vn 0.821489 0.000000 -0.570224
vn 0.821489 0.000000 -0.570224
vn 0.821489 0.000000 -0.570224
vn 0.821489 0.000000 -0.570224
vn 0.821489 0.000000 -0.570224
vn 0.692004 0.000000 -0.721894
vn 0.692004 0.000000 -0.721894
vn 0.692004 0.000000 -0.721894
vn 0.692004 0.000000 -0.721894
vn 0.692004 0.000000 -0.721894
vn 0.692004 0.000000 -0.721894
vn 0.000000 0.000000 -1.000000
vn 0.000000 0.000000 -1.000000
vn 0.000000 0.000000 -1.000000
vn 0.000000 0.000000 -1.000000
vn 0.000000 0.000000 -1.000000
vn 0.000000 0.000000 -1.000000
vn 0.718186 0.000000 -0.695851
vn 0.718186 0.000000 -0.695851
vn 0.718186 0.000000 -0.695851
vn 0.718186 0.000000 -0.695851
vn 0.718186 0.000000 -0.695851
vn 0.718186 0.000000 -0.695851
vn 0.043458 0.000000 -0.999055
vn 0.043458 0.000000 -0.999055
vn 0.043458 0.000000 -0.999055
vn 0.043458 0.000000 -0.999055
vn 0.043458 0.000000 -0.999055
vn 0.043458 0.000000 -0.999055
vn -0.990453 0.000000 -0.137853
vn -0.990453 0.000000 -0.137853
vn -0.990453 0.000000 -0.137853
vn -0.990453 0.000000 -0.137853
vn -0.990453 0.000000 -0.137853
vn -0.990453 0.000000 -0.137853
vn -0.846802 0.000000 -0.531909
vn -0.846802 0.000000 -0.531909
vn -0.846802 0.000000 -0.531909
vn -0.846802 0.000000 -0.531909
vn -0.846802 0.000000 -0.531909
vn -0.846802 0.000000 -0.531909
vn -0.114952 0.000000 -0.993371
vn -0.114952 0.000000 -0.993371
vn -0.114952 0.000000 -0.993371
vn -0.114952 0.000000 -0.993371
vn -0.114952 0.000000 -0.993371
vn -0.114952 0.000000 -0.993371
vn -0.999478 0.000000 -0.032320
vn -0.999478 0.000000 -0.032320
vn -0.999478 0.000000 -0.032320
vn -0.999478 0.000000 -0.032320
vn -0.999478 0.000000 -0.032320
vn -0.999478 0.000000 -0.032320
vn -0.999456 0.000000 -0.032993
vn -0.999456 0.000000 -0.032993
vn -0.999456 0.000000 -0.032993
vn -0.999456 0.000000 -0.032993
vn -0.999456 0.000000 -0.032993
vn -0.999456 0.000000 -0.032993
vn -0.279383 -0.000000 0.960180
vn -0.279383 -0.000000 0.960180
vn -0.279383 -0.000000 0.960180
vn -0.279383 -0.000000 0.960180
vn -0.279383 -0.000000 0.960180
vn -0.279383 -0.000000 0.960180
vn 1.000000 0.000000 0.000000
vn 1.000000 0.000000 0.000000
vn 1.000000 0.000000 0.000000
vn 1.000000 0.000000 0.000000
vn 1.000000 0.000000 0.000000
vn 1.000000 0.000000 0.000000
vn 0.051029 -0.998472 -0.021206
vn 0.056713 -0.998214 -0.018788
vn 0.053403 -0.998573 -0.000000
vn 0.013818 -0.999857 0.009747
vn 0.037527 -0.998942 0.026583
vn 0.000000 -1.000000 -0.000000
vn 0.079203 -0.996858 -0.000391
vn 0.037527 -0.998942 0.026583
vn 0.013818 -0.999857 0.009747
vn 0.034151 -0.998529 -0.042107
vn 0.082462 -0.993238 -0.081718
vn 0.002712 -0.998051 -0.062348
vn 0.061642 -0.996298 -0.059925
vn 0.082462 -0.993238 -0.081718
vn 0.034151 -0.998529 -0.042107
vn 0.061642 -0.996298 -0.059925
vn 0.103870 -0.991402 -0.079576
vn 0.082462 -0.993238 -0.081718
vn 0.079203 -0.996858 -0.000391
vn 0.053385 -0.997907 -0.036493
vn 0.037527 -0.998942 0.026583
vn 0.103870 -0.991402 -0.079576
vn 0.079203 -0.996858 -0.000391
vn 0.102665 -0.994711 0.003320
vn 0.103870 -0.991402 -0.079576
vn 0.053385 -0.997907 -0.036493
vn 0.079203 -0.996858 -0.000391
vn 0.061642 -0.996298 -0.059925
vn 0.053385 -0.997907 -0.036493
vn 0.103870 -0.991402 -0.079576
vn 0.010187 -0.998613 -0.051657
vn 0.053385 -0.997907 -0.036493
vn 0.061642 -0.996298 -0.059925
vn 0.035879 -0.998540 -0.040384
vn 0.053385 -0.997907 -0.036493
vn 0.010187 -0.998613 -0.051657
vn 0.035879 -0.998540 -0.040384
vn 0.051029 -0.998472 -0.021206
vn 0.053385 -0.997907 -0.036493
vn 0.051947 -0.998253 -0.028153
vn 0.051029 -0.998472 -0.021206
vn 0.035879 -0.998540 -0.040384
vn 0.077624 -0.996798 -0.019219
vn 0.051029 -0.998472 -0.021206
vn 0.051947 -0.998253 -0.028153
vn 0.059795 -0.997805 -0.028471
vn 0.051029 -0.998472 -0.021206
vn 0.077624 -0.996798 -0.019219
vn 0.056713 -0.998214 -0.018788
vn 0.051029 -0.998472 -0.021206
vn 0.059795 -0.997805 -0.028471
vn -0.051029 0.998472 0.021206
vn -0.053403 0.998573 0.000000
vn -0.056713 0.998214 0.018788
vn -0.013818 0.999857 -0.009747
vn 0.000000 1.000000 0.000000
vn -0.037527 0.998942 -0.026583
vn -0.079203 0.996858 0.000391
vn -0.013818 0.999857 -0.009747
vn -0.037527 0.998942 -0.026583
vn -0.034151 0.998529 0.042107
vn -0.002712 0.998051 0.062348
vn -0.082462 0.993238 0.081718
vn -0.061642 0.996298 0.059925
vn -0.034151 0.998529 0.042107
vn -0.082462 0.993238 0.081718
vn -0.061642 0.996298 0.059925
vn -0.082462 0.993238 0.081718
vn -0.103870 0.991402 0.079576
vn -0.079203 0.996858 0.000391
vn -0.037527 0.998942 -0.026583
vn -0.053385 0.997907 0.036493
vn -0.103870 0.991402 0.079576
vn -0.102665 0.994711 -0.003320
vn -0.079203 0.996858 0.000391
vn -0.103870 0.991402 0.079576
vn -0.079203 0.996858 0.000391
vn -0.053385 0.997907 0.036493
vn -0.061642 0.996298 0.059925
vn -0.103870 0.991402 0.079576
vn -0.053385 0.997907 0.036493
vn -0.010187 0.998613 0.051657
vn -0.061642 0.996298 0.059925
vn -0.053385 0.997907 0.036493
vn -0.035879 0.998540 0.040384
vn -0.010187 0.998613 0.051657
vn -0.053385 0.997907 0.036493
vn -0.035879 0.998540 0.040384
vn -0.053385 0.997907 0.036493
vn -0.051029 0.998472 0.021206
vn -0.051947 0.998253 0.028153
vn -0.035879 0.998540 0.040384
vn -0.051029 0.998472 0.021206
vn -0.077624 0.996798 0.019219
vn -0.051947 0.998253 0.028153
vn -0.051029 0.998472 0.021206
vn -0.059795 0.997805 0.028471
vn -0.077624 0.996798 0.019219
vn -0.051029 0.998472 0.021206
vn -0.056713 0.998214 0.018788
vn -0.059795 0.997805 0.028471
vn -0.051029 0.998472 0.021206
s off
g K_Ground_024 amb group1
usemtl AM_Ground_001SG
f 1//1 2//2 21//3
f 1//4 21//5 20//6
f 2//7 3//8 22//9
f 2//10 22//11 21//12
f 3//13 4//14 23//15
f 3//16 23//17 22//18
f 4//19 5//20 24//21
f 4//22 24//23 23//24
f 5//25 6//26 25//27
f 5//28 25//29 24//30
f 6//31 7//32 26//33
f 6//34 26//35 25//36
f 7//37 8//38 27//39
f 7//40 27//41 26//42
f 8//43 9//44 28//45
f 8//46 28//47 27//48
f 9//49 10//50 29//51
f 9//52 29//53 28//54
f 10//55 11//56 30//57
f 10//58 30//59 29//60
f 11//61 12//62 31//63
f 11//64 31//65 30//66
f 12//67 13//68 32//69
f 12//70 32//71 31//72
f 13//73 14//74 33//75
f 13//76 33//77 32//78
f 14//79 15//80 34//81
f 14//82 34//83 33//84
f 15//85 16//86 35//87
f 15//88 35//89 34//90
f 16//91 17//92 36//93
f 16//94 36//95 35//96
f 17//97 18//98 37//99
f 17//100 37//101 36//102
f 18//103 19//104 38//105
f 18//106 38//107 37//108
f 19//109 1//110 20//111
f 19//112 20//113 38//114
f 3//115 5//116 4//117
f 18//118 1//119 19//120
f 17//121 1//122 18//123
f 12//124 14//125 13//126
f 11//127 14//128 12//129
f 11//130 15//131 14//132
f 17//133 2//134 1//135
f 15//136 17//137 16//138
f 15//139 2//140 17//141
f 11//142 2//143 15//144
f 10//145 2//146 11//147
f 9//148 2//149 10//150
f 9//151 3//152 2//153
f 8//154 3//155 9//156
f 7//157 3//158 8//159
f 6//160 3//161 7//162
f 5//163 3//164 6//165
f 22//166 23//167 24//168
f 37//169 38//170 20//171
f 36//172 37//173 20//174
f 31//175 32//176 33//177
f 30//178 31//179 33//180
f 30//181 33//182 34//183
f 36//184 20//185 21//186
f 34//187 35//188 36//189
f 34//190 36//191 21//192
f 30//193 34//194 21//195
f 29//196 30//197 21//198
f 28//199 29//200 21//201
f 28//202 21//203 22//204
f 27//205 28//206 22//207
f 26//208 27//209 22//210
f 25//211 26//212 22//213
f 24//214 25//215 22//216
