# This file uses centimeters as units for non-parametric coordinates.

mtllib A.mtl
g default
v -2.820911 -0.209124 0.013284
v 0.554915 -0.209124 0.013284
v -2.820911 3.164171 -0.117391
v 0.554915 3.164171 -0.117391
v -2.820911 -0.237209 -0.137804
v 0.554915 -0.237209 -0.137804
v 0.554915 3.136086 -0.268478
v -2.820911 3.136086 -0.268478
vt 0.000000 0.000000
vt 1.000000 0.000000
vt 0.000000 1.000000
vt 1.000000 1.000000
vt 0.000000 0.000000
vt 1.000000 0.000000
vt 1.000000 1.000000
vt 0.000000 1.000000
vt 0.000000 0.000000
vt 1.000000 0.000000
vt 1.000000 1.000000
vt 0.000000 1.000000
vn 0.000000 0.038709 0.999250
vn 0.000000 0.038709 0.999250
vn 0.000000 0.038709 0.999250
vn 0.000000 0.038709 0.999250
vn 0.000000 -0.038709 -0.999250
vn 0.000000 -0.038709 -0.999250
vn 0.000000 -0.038709 -0.999250
vn 0.000000 -0.038709 -0.999250
vn 0.000000 0.983158 -0.182755
vn 0.000000 0.983158 -0.182755
vn 0.000000 0.983158 -0.182755
vn 0.000000 0.983158 -0.182755
vn -1.000000 0.000000 0.000000
vn -1.000000 0.000000 0.000000
vn -1.000000 0.000000 0.000000
vn -1.000000 0.000000 0.000000
vn 0.000000 -0.983158 0.182757
vn 0.000000 -0.983158 0.182757
vn 0.000000 -0.983158 0.182757
vn 0.000000 -0.983158 0.182757
vn 1.000000 -0.000000 -0.000000
vn 1.000000 -0.000000 -0.000000
vn 1.000000 -0.000000 -0.000000
vn 1.000000 -0.000000 -0.000000
s off
g pPlane2
usemtl initialShadingGroup
f 5/9/1 6/10/2 7/11/3 8/12/4
f 1/5/5 3/8/6 4/7/7 2/6/8
f 1/1/9 2/2/10 6/10/11 5/9/12
f 2/2/13 4/4/14 7/11/15 6/10/16
f 4/4/17 3/3/18 8/12/19 7/11/20
f 3/3/21 1/1/22 5/9/23 8/12/24
