# This file uses centimeters as units for non-parametric coordinates.

mtllib steine.mtl
g default
v -1.498669 0.036186 -1.570209
v 1.428559 -0.414982 -1.570209
v -1.187803 2.053121 -1.482730
v 1.739425 1.601952 -1.482730
vt 0.000000 0.000000
vt 1.000000 0.000000
vt 0.000000 1.000000
vt 1.000000 1.000000
vn -0.006524 -0.042327 0.999083
vn -0.006524 -0.042327 0.999083
vn -0.006524 -0.042327 0.999083
vn -0.006524 -0.042327 0.999083
s off
g pPlane2
usemtl initialShadingGroup
f 1/1/1 2/2/2 4/4/3 3/3/4
g default
v -0.955101 0.036186 -0.315448
v 0.928833 -0.414982 -2.555862
v -0.688077 2.053121 -0.497076
v 1.195857 1.601952 -2.737490
vt 0.000000 0.000000
vt 1.000000 0.000000
vt 0.000000 1.000000
vt 1.000000 1.000000
vn 0.760470 -0.042327 0.647992
vn 0.760470 -0.042327 0.647992
vn 0.760470 -0.042327 0.647992
vn 0.760470 -0.042327 0.647992
s off
g pasted__pPlane2 group1
usemtl initialShadingGroup
f 5/5/5 6/6/6 8/8/7 7/7/8
